<?xml version="1.0" encoding="UTF-8"?>
<svg id="Layer_2" data-name="Layer 2" xmlns="http://www.w3.org/2000/svg" viewBox="0 0 1310.3 1025.51">
  <defs>
    <style>
      .cls-1 {
        fill: #262a2b;
      }

      .cls-1, .cls-2, .cls-3, .cls-4, .cls-5, .cls-6, .cls-7, .cls-8, .cls-9, .cls-10, .cls-11, .cls-12, .cls-13, .cls-14, .cls-15, .cls-16 {
        stroke-width: 0px;
      }

      .cls-2 {
        fill: #5c0c0b;
      }

      .cls-3 {
        fill: #e3e3e3;
      }

      .cls-4 {
        fill: #db8c69;
      }

      .cls-5 {
        fill: #fce590;
      }

      .cls-6 {
        fill: #0b0a09;
      }

      .cls-7 {
        fill: #f5c394;
      }

      .cls-8 {
        fill: #fac797;
      }

      .cls-9 {
        fill: #4a6572;
      }

      .cls-10 {
        fill: #fafafa;
      }

      .cls-11 {
        fill: #fefefd;
      }

      .cls-12 {
        fill: #8a8a89;
      }

      .cls-13 {
        fill: #35515c;
      }

      .cls-14 {
        fill: #fcfcfc;
      }

      .cls-15 {
        fill: #7f7f7e;
      }

      .cls-16 {
        fill: #131313;
      }
    </style>
  </defs>
  <g id="Layer_1-2" data-name="Layer 1">
    <g>
      <path class="cls-11" d="M227.21,640.67c.14,1.08.22,2.19.22,3.36-2.44,2.71-4.9,5.36-7.36,8.04,2.46-2.68,4.95-5.33,7.39-8.04v-.03c0-1.16-.08-2.27-.24-3.33Z"/>
      <path class="cls-6" d="M1227.31,238.24c-12.67,1.14-25.31,2.3-37.98,3.46-.19-.7-.41-1.38-.6-2.06,10.99-6.09,22.01-12.15,33-18.27,4.49-2.49,9.07-4.9,12.45-8.88,4.33-5.14,4.71-10.77,1.25-16.49-3.47-5.66-8.58-7.07-14.7-4.9-3.3,1.16-6.63,2.33-9.72,3.95-11.23,5.87-22.36,11.99-33.59,17.89-1.87.97-3.74,3.47-7.09.76,4.82-6.15,9.69-12.15,14.37-18.33,6.04-7.93,13.08-15.19,16.97-24.58,2.73-6.63,2.41-12.7-3.87-17.33-5.55-4.09-12.43-3.38-18.25,2.49-3.98,4.01-7.28,8.69-10.77,13.16-11.18,14.35-23.85,27.18-38.33,38.2-1.62,1.25-3.22,3.28-5.68,2.03-2.27-1.19-2.22-3.49-2.19-5.68.03-2.44-.03-4.87.05-7.28.38-10.5-1.27-20.44-7.74-29.1-5.06-6.82-11.42-9.31-17.38-6.47-7.07,3.36-5.85,9.37-4.85,15.4,2.08,12.56,1.19,24.61-5.55,35.98-5.33,8.96-7.34,19.08-8.18,29.37-1.08,13.32-14.54,25.77-27.8,25.39-8.2-.24-14.89,2.08-18.54,10.1-.97,2.14-2.41,3.57-5.01,3.14-19.22-3.09-33.13,6.79-46.13,18.92-35.16,32.81-69.25,66.67-100.68,103.19-8.77,10.21-16.49,21.33-26.53,30.48l-.11-.05c-9.07,14.1-20.36,26.47-30.48,39.77-7.01,9.23-14.32,18.22-21.41,27.42-2.44,3.14-4.9,5.6-9.42,4.47-21.93-5.55-43.91-10.96-65.89-16.46-.16-4.11,3.22-5.01,5.31-6.69,19.22-15.67,38.95-30.67,53.87-51.03,8.15-11.15,13.43-23.33,17.05-36.38,1.46-5.31,3.82-8.09,9.53-6.96,1.76-1.27,2.06-4.06,4.68-4.39,31.37-22.17,46.18-53.3,48.56-90.88,1-15.7-2-29.8-19.03-36.41-4.14-1.62-3.03-5.04-2.36-8.28,4.58-21.44,7.15-43.1,7.8-65.05,1.73-60.64-22.87-108.74-70.46-144.75C734.03.91,678.43-6.91,621.66,5.49c-68.43,14.94-116.92,54.95-134.81,125.93-6.04,23.98-9.2,48.24-8.83,72.96.05,3,1.19,7.2-3.93,7.25-14.37.11-20.84,9.42-25.37,21.22.65,1.57.03,2.71-1.22,3.65-.76,3.6-1.52,7.2-2.27,10.8,1.19,9.04.6,18.11,0,27.18.27,3.06.51,6.12.78,9.18,1.22,1.03,1.71,2.25.89,3.76.24,1.43.49,2.9.73,4.33,1.27,1,1.73,2.22.97,3.74,3.76,15.59,11.5,29.29,20.38,42.45,3.19,4.74,7.34,8.5,12.78,10.61,3.63.6,3.49,2.79,2.27,5.41.19,4.55.38,9.07.57,13.62.03,2.36.05,4.68.08,7.04,11.78,40.34,38.55,71.25,64.43,102.76,2.27,2.76,7.01,5.39,5.55,9.07-1.41,3.57-6.69,2.33-10.21,2.95-15.43,2.71-31.05,3.95-46.67,4.85-3.87.22-7.58.54-9.53,4.71-2.25,4.74-4.68,3.36-7.01.03-4.76-6.88-9.56-13.72-14.21-20.65-23.96-35.6-47.97-71.14-71.66-106.9-2.03-3.09-7.04-4.68-5.79-9.75-1.25-1.46-2.46-2.92-3.68-4.36-2.3-3-4.68-5.96-6.88-9.01-15.62-21.71-30.94-43.66-46.89-65.13-10.15-13.67-21.85-25.61-40.52-26.64-2.19-.14-4.55-.7-5.31-3.09-3.14-9.83-11.15-12.15-19.98-13.94-8.69-1.76-21.52-16.65-20.82-24.17,1.38-15.02.05-29.56-4.95-43.91-2.14-6.12-1.52-12.86.19-19.22,1.16-4.44,2.92-8.72,3.95-13.16,2-8.85-2.95-14.18-11.99-13.4-4.25.38-7.85,2.25-10.67,5.25-6.2,6.69-10.21,14.54-11.34,23.71-.49,4.01-.97,8.01-1.76,11.99-.89,4.6-3.22,5.2-6.52,1.84-4.14-4.25-8.61-8.23-12.34-12.8-10.5-12.8-18.27-27.37-25.85-42.01-5.63-10.86-12.29-14.16-20.3-10.18-8.8,4.33-10.34,11.07-5.14,22.69,5.09,11.34,10.88,22.33,17.27,33,1.43,2.41,3.33,4.71,3.49,7.96-3.87.08-5.82-2.41-8.07-4.09-9.07-6.82-18-13.83-27.02-20.74-3.41-2.6-6.88-5.17-10.99-6.74-5.79-2.17-10.61-.7-14.7,3.63-4.22,4.49-4.33,9.61-1.81,15,1.87,4.03,4.79,7.15,8.28,9.8,8.58,6.55,17.3,12.97,25.83,19.6,2.19,1.71,5.41,2.65,5.82,6.2-2.33,2.22-4.57.51-6.74-.05-10.18-2.73-20.25-5.82-30.48-8.2-11.04-2.6-18.6,4.3-16.95,14.94.95,5.98,5.47,8.26,10.37,10.23,12.15,4.87,24.66,8.77,38.2,12.56-3.14,2.95-5.66,2.14-7.9,2.3-7.82.57-15.65,1.03-23.47,1.46-6.28.35-10.15,3.3-10.86,9.77-.79,6.85,2.11,11.56,8.58,13.78,2.25.79,4.79.97,7.17,1,23.06.32,45.23,1.6,64.81,17.46,8.55,6.93,17.87,12.32,23.74,22.12,2.41,4.03,3.57,7.61,2,12.13-5.55,16.08-.65,29.7,10.42,41.61,7.01,7.55,13.26,15.65,18.79,24.34,10.48,16.43,22.33,31.83,35.76,46.02,2.73,1.52,3.84,4.01,4.09,6.98,11.61,8.5,21.87,18.46,30.29,30.1,35.84,49.43,73.96,97.02,114.54,142.66,3.22,3.6,6.17,7.47,7.96,12.07,4.57,2.76,1.71,6.28.51,9.18-3.84,9.31-9.45,17.7-16.27,25.01-5.33,5.71-6.06,10.58-2.76,17.92,12.64,28.07,24.5,56.5,36.55,84.84,1.95,4.52,4.03,8.83,8.18,11.8,17.73,12.75,35.81,25.07,50.54,41.44,3.76-.24,5.77-1.68,5.74-6.01-.05-17.22-2.54-34.35-2.76-51.49-.32-23.31-5.55-45.78-8.8-68.6-4.03-28.67-8.18-57.31-14.29-85.65-.43-2.08-.3-5.12-2.87-5.12-3.22-.03-1.57,3.3-2.25,5.09-1.68,4.55.11,9.01.08,13.51-.08,10.58-5.09,14.16-15.54,12.51-14-2.22-23.25-11.67-33.38-20.06-15.54-12.91-25.12-30.81-38.39-45.64-17.22-19.25-33.24-39.44-48.38-60.39-11.48-15.89-23.74-31.21-36.09-46.45-9.15-11.26-18.57-22.36-28.61-32.81-15.4-16.03-28.07-34-39.88-52.63-5.41-8.53-12.86-15.27-19.46-22.63-5.9-6.58-6.23-13.7-3.6-20.14,3.87-9.53,2.14-17.54-3.03-25.2-11.56-17.16-10.29-20.06,6.88-35.68,5.71-5.2,12.67-9.07,19.22-13.32,6.82-4.44,12.02-3.28,16.19,3.76,5.09,8.55,10.96,16,21.33,18.33.51.11,1.14.35,1.43.73,8.45,11.42,21.36,12.86,33.84,16.43,10.45,3,17.3,12.43,23.66,21.28,23.23,32.27,47.24,64.05,69.46,97.02,20.41,30.32,41.69,60.15,60.07,91.82,3.9,6.71,10.07,11.88,13.67,18.95,3.28,6.36,2.41,8.96-4.57,9.64-5.98.57-11.61,2.19-17.19,4.14-2.46.87-5.5,1.98-4.85,5.5.65,3.52,3.65,3.38,6.42,3.47,11.75.43,22.98-3,33.97-6.06,19.68-5.52,39.31-10.96,59.39-14.67,5.52-1.03,10.1-.54,12.83,5.28,8.64,18.33,23.93,29.4,42.61,34.35,32.65,8.66,65.56,8.09,97.24-4.71,14.7-5.93,26.91-15.67,31.37-32.35,1.41-5.25,4.39-7.09,10.37-4.98,29.72,10.48,60.61,16.49,91.36,23.04,1.81.38,3.76.08,5.66.08,2.63,0,5.06-.57,5.47-3.6.41-3.06-2.03-4.44-4.33-5.06-5.28-1.35-10.1-3.57-14.97-5.9-6.06-2.87-6.44-7.01-1.46-10.31,11.21-7.39,17.97-18.76,24.96-29.18,12.05-17.95,27.07-33.38,39.74-50.7,5.68-7.8,12.32-14.94,18.92-22.01,32.29-34.49,65.4-68.16,100.35-99.97,4.06-3.68,9.1-5.6,14.89-5.14,9.91.76,19.95-1.38,29.8,1.33,2.19.6,4.39.32,5.71-1.87,1.41-2.33.05-4.06-1.46-5.74-1.25-1.35-3.06-2.68-1.62-4.82,1.38-2.08,3.28-1.54,4.98-.43,4.95,3.19,8.72.84,12.18-2.6,3.82-3.79,7.9-7.25,12.1-10.67,4.85-3.95,9.42-3.41,14.18-.7,13.43,7.61,20.74,20.65,26.2,33.92,3.71,8.93-5.12,15.97-11.29,21.58-9.8,8.91-11.59,14-5.41,26.37,1.57,3.17.76,5.14-1.43,7.09-22.52,19.73-41.28,43.8-65.48,61.29-17.7,12.78-33.38,27.86-49.43,42.04-18.14,16.03-35.95,33.41-50.3,53.46-4.63,6.44-11.69,10.31-17.22,15.84-19.63,19.73-39.14,39.6-59.12,58.96-8.64,8.36-17.65,16.62-29.91,19.9-3.19.84-6.28,1.35-9.53,1.3-8.42-.14-11.59-3.57-9.45-11.64,1.71-6.47.73-12.89,1.08-19.33.08-1.52.35-3.65-1.84-3.84-1.84-.14-2.57,1.6-2.87,3.28-2.19,11.86-4.74,23.69-6.52,35.6-4.47,30.21-9.04,60.45-12.7,90.74-1.79,14.65-2.6,29.45-4.01,44.12-1.76,18.16,1.03,36.68-3.95,54.55-1.49,5.39,5.85,7.2,4.39,12.34,18.08-3.57,34.38-12.18,51.6-18.16,22.31-7.74,35.44-23.31,43.04-44.69,4.87-13.72,12.59-25.5,23.88-34.84,2.6-2.14,4.17-4.85,5.22-7.96-.92-2.98-1.87-5.96-2.82-8.91-3.28-.76-3.38-3.95-4.39-6.23-7.09-16.03-13.97-32.16-17.54-49.46-2.79-13.62-9.07-25.88-15.19-38.22-1.33-2.6-4.98-5.87-.03-8.77,6.71-10.83,17.05-18.06,26.2-26.47,34.14-34.08,68-68.38,99.97-104.52,4.71-5.31,11.34-8.91,17.08-13.29,2.6-1.16,5.2-2.33,7.77-3.49,1.06-1.22,1.95-2.68,3.19-3.6,29.59-21.22,52.44-49.78,79.97-73.25,10.37-8.83,15.11-20.19,11.72-34.03-.92-3.76.51-6.44,2.68-9.56,13.32-18.87,36.19-20.06,54.41-29.83,1.6-.87,4.22.16,6.36.24,13.75.65,27.29,3.9,41.12,3.47,6.17-.22,10.96-3.06,11.99-9.85,1.03-6.71-2.36-10.77-8.42-12.89-3.57-1.25-7.26-2.08-10.83-3.33-6.31-2.19-13.4-1.16-19.92-4.57,3.93-2.6,8.07-2.22,11.91-2.98,10.07-1.98,20.17-3.65,30.21-5.77,5.69-1.19,9.85-4.09,10.02-10.83.27-9.69-5.14-14.65-15.4-13.7ZM222.88,226.49c-14.89,6.01-26.2,17.97-34.98,31.62-3.19,4.98-6.33,5.98-11.13,2.6-2.19-1.54-5.22-2.14-7.04-3.98-14.7-14.73-33.43-16.19-52.6-16.35-4.87-.05-9.72-.35-14.59-.6-2.57-.14-5.2-.89-5.44-3.79-.27-3.14,2.17-4.85,4.98-5.47,2.08-.49,4.28-.51,6.42-.62,11.07-.43,22.14-.81,33.22-1.27,4.28-.16,9.53.54,10.42-5.2,1.03-6.39-4.79-6.93-8.96-8.34-14.1-4.68-28.26-9.23-42.39-13.86-2.82-.92-5.79-1.6-7.88-3.93-1.46-1.65-2.63-3.6-1.71-5.9,1-2.49,3.3-2.41,7.04-2.19,12.1,3.28,25.64,6.98,39.17,10.61,3.65.97,7.31,1.98,11.02,2.49,3.25.46,6.74.3,8.28-3.44,1.62-3.98-1.38-5.87-3.95-7.88-14.65-11.56-29.29-23.09-43.88-34.68-1.68-1.33-3.49-2.71-4.57-4.47-1.25-2.06-1.95-4.71-.08-6.85,1.68-1.92,4.01-2.49,6.61-1.68,5.82,1.87,10.45,5.6,15.02,9.42,10.8,8.99,21.82,17.68,33.76,25.15,2.87,1.79,5.82,4.87,9.45,1.89,3.82-3.14,2.95-7.28,1.16-11.13-1.6-3.41-3.63-6.63-5.41-9.96-6.2-11.69-12.45-23.36-18.49-35.11-2.25-4.33-5.2-10.07.32-12.94,6.06-3.14,8.99,2.92,11.29,7.47,6.71,13.26,14,26.2,22.79,38.22,4.63,6.33,9.45,12.67,15.76,17.35,5.77,4.25,6.82,8.31,4.03,15-4.44,10.58-4.68,21.6.68,32.16.87,1.71,1.68,4.95,4.17,4.01,3.17-1.22,1.54-4.25.54-6.31-6.09-12.53-3.17-24.15,3.38-35.44,4.36-7.55,7.34-15.43,8.55-24.23,1.14-8.28,3.68-16.43,10.18-22.44,2.11-1.95,4.93-4.41,7.82-2.52,2.22,1.43,1.06,4.66.24,6.82-5.5,14.78-5.44,29.4-.05,44.31,1.68,4.71,1.49,10.1,2,15.21,1.27,12.34-1.84,20.84-15.16,26.2ZM843.26,266.23c4.49.84,9.23,3.25,10.56,8.77,2.54,10.69,1.65,21.36-.32,32.02-5.09,27.48-19.84,49.02-40.8,66.78-.73.62-1.84.76-3.3,1.3,0-5.71,1.76-10.48,3.36-15.27,4.25-20.79,8.47-41.61,12.72-62.4,4.85-7.5,10.23-14.73,12.02-23.77,1.33-3.03,1.35-8.26,5.77-7.44ZM685.87,241.03c4.82,2.27,5.9-2.57,8.09-4.63,9.29-8.77,19.73-14.89,32.7-16.11,12.4-1.92,24.39-.68,35.79,4.85,27.04,10.02,42.8,45.26,33.49,74.82-10.96,34.7-46.67,53.33-79.53,41.44-33.43-12.05-50.32-50.19-36.92-83.54,1.49-3.71,4.06-6.98,5.66-10.64.78-1.76,3.9-3.74.57-6.01-5.6,1.84-6.14,7.5-8.53,11.67-1.76,3.03-3.22,5.66-7.31,4.66-.22.95-.46,1.89-.7,2.84,1.19,1.03,2.92,1.95,2.38,3.84-.62,2.08-2.46,1.81-4.03,1.33-7.04-2.25-14.27-2.71-21.6-2.25-1.33.08-3,.11-3.25-1.54-.27-1.87,1.27-2.87,2.84-3.41,3.93-1.35,7.96-1,12.02-.79,2.49.11,5.01,2.38,7.55.22.03-.03.05-.05.08-.08l-.08-.11c-3.98-4.9-9.83-4.09-14.83-3.74-6.82.49-9.26-1.89-10.88-8.39-12.53-50.16-72.63-67.49-110.34-32-5.74,5.41-10.45,11.75-13.81,18.87-2.46,5.2-6.25,5.01-10.77,3.98-5.44-1.22-3.57-5.39-3.28-8.5,1.11-12.67,3.03-25.26,7.93-37.09,5.93-14.35,8.8-29.4,11.42-44.61,7.9-45.86,45.99-66.27,88.9-47.75,15.08,6.5,29.16,15.32,45.32,19.46,24.42,6.25,48.73,4.63,73.04-.43,10.31-2.14,20.74-3.82,31.29-4.11,32.76-.95,52.49,16.73,55.17,49.49.43,5.39.38,10.83.16,16.22-.76,19.44-1.03,38.87,2.03,58.2,1.43,9.15.49,18.33-.68,27.45-.43,3.49.03,7.72-5.82,7.96-5.36.22-7.85-1.76-8.96-6.9-3.87-17.84-14.16-31.02-29.29-41.07-25.83-17.14-64.13-12.02-84.03,11.75-1.03,1.25-3.33,2.3-1.79,4.66ZM630.7,289.27c-11.45,26.29-43.37,43.88-72.22,34.41-47.86-15.7-58.34-69.08-30.26-102,3.79-4.41,7.39-9.37,13.48-11.15,27.56-18.68,64.83-11.37,83.11,16.3,15.4,19.55,15.29,40.88,5.9,62.45ZM808.23,277.22c4.76.46,9.56.95,14.32,1.46,1.92.19,4.3.54,4.09,2.82-.24,3-2.95,2.3-4.2,2.22-5.36-.51-9.85-.92-14.37-1.43-1.84-.19-4.14-.43-4.06-2.87.08-2.6,2.36-2.38,4.22-2.19ZM493.24,157.65c5.74-28.61,12.89-56.93,30.48-80.94,13.45-18.38,28.86-34.87,52.06-41.23.73-1.33,1.89-1.73,3.3-1.71,2.17-2.46,4.82-4.2,8.09-4.87,30.35-15.59,62.48-20.03,96.26-16.76,25.47,2.44,50.05,7.42,72.44,20.14,12.91,7.34,26.04,14.81,35,27.37,12.97,10.45,22.63,23.74,30.78,37.93,13.26,23.12,18.95,48.05,19.03,74.99.05,25.09-4.06,49.59-6.12,75.74-6.74-7.12-8.39-15.13-8.72-22.77-.78-18.3-3.11-36.6-1.71-54.93.65-8.58.95-16.92.11-25.61-2.68-28.02-28.15-53.19-58.82-46.51-2.14.46-4.66.87-6.17-.87-4.82-5.5-10.1-3.44-15.62-1.65-10.48,3.44-20.93,7.2-31.59,9.96-22.77,5.9-44.75,3.93-66.7-5.31-13.18-5.52-23.85-16.16-38.25-18.6-7.63-1.27-13.89-6.55-21.2-7.34-16.35-1.76-31.54,2.6-45.34,11.61-.22.14-.35.43-.6.54-23.96,11.42-26.96,34.08-30.64,56.58-3.03,18.62-11.61,35.41-18.14,52.98-2.33-13.21-.49-26.1,2.06-38.77ZM485.17,274.62c-1.79,14.65-.51,29.64-.68,44.48-.03,2.92.65,5.96-.73,8.77-.19,2.19,1.62,5.12-1.79,6.12-3.14.97-4.03-1.98-5.33-3.87-18.6-27.04-25.18-56.69-18.95-89.01,1.16-6.12,2.82-12.24,8.26-16.11,3.3-2.36,7.23-4.52,11.26-2.68,3.74,1.71,3.19,5.79,3.11,9.29-3.79,14.86,6.69,27.96,4.85,43.02ZM486.44,240.94c.41-2.06,2.41-1.79,3.98-1.6,5.04.62,10.07,1.3,15.08,2.06,1.84.27,4.03.68,3.55,3.25-.38,2.11-2.44,1.54-3.63,1.81-5.36-.78-10.4-1.52-15.43-2.25-1.89-.3-4.03-.7-3.55-3.28ZM715.05,507.08c-6.63,13.83-17.95,21.93-32.24,26.37-15.08,4.66-30.51,6.96-46.32,6.74-18.84-.35-37.14-3.03-54.06-11.99-8.36-4.41-14.97-10.69-19.14-19.17-1.52-3.09-3.14-7.09.27-9.72,3.55-2.73,5.85,1,8.12,3.06,32.59,29.43,81.4,33.49,118.24,9.72,5.9-3.82,11.59-7.96,17.46-11.8,2.52-1.65,5.41-3.17,8.15-.6,2.57,2.46.68,5.01-.49,7.39ZM689.31,501.09c-21.71,16.76-44.99,18.14-70.52,14.32-19-2.84-33.92-11.48-46.26-25.69-21.58-24.9-42.83-50.08-61.04-77.64-11.13-16.86-16.38-35.65-17.19-55.79-1.33-32.46-.11-64.78,3.6-97.05.41-3.52.22-7.12,5.6-6.96,6.01.19,5.14,4.2,5.14,7.96-.05,32.19,13.43,53.44,41.34,65.08,36.44,15.19,79.13-6.17,89.17-44.42,1.16-4.41.05-10.91,6.04-12.29,7.44-1.71,15.11-.51,22.06,2.84,3.33,1.62,3.14,5.33,3.3,8.64.32,7.01.89,14.02,1.08,21.03.19,6.98.03,14,.03,22.06,2.44-3.33.54-7.85,4.22-8.39,3.6-.57,4.25,3.55,5.82,5.87,15.46,22.6,42.2,33.16,69.6,27.4,25.09-5.31,45.78-27.12,50.51-53.3.24-1.33.41-2.68.7-3.98.89-3.68,3.65-3.33,6.44-3.03,3.33.38,3.41,2.44,3.28,5.22-1.87,37.76-10.48,74.23-22.22,109.96-7.09,21.49-22.96,36.95-39.71,51.27-19.52,16.68-40.69,31.24-60.99,46.89ZM1228.8,256.97c-15.51,2.17-31.02,4.33-46.53,6.5-2.41.35-4.82.68-7.2,1.14-3.63.7-5.98,2.95-6.01,6.63-.03,3.79,3.25,4.57,6.2,5.22,12.37,2.76,24.77,5.44,37.17,8.15,1.6.32,3.22.51,4.74,1.03,2.76.97,4.93,2.79,4.33,5.98-.65,3.49-3.57,3.52-6.39,3.3-1.33-.11-2.68-.32-4.01-.49v.05c-4.03-.49-8.12-.68-12.07-1.46-18.54-3.57-36.55-3.93-52.9,7.61-.65.46-1.49.65-2.25.95-12.75,4.6-12.7,4.57-18.33-7.61-7.09-15.35-17.84-27.67-32.11-36.63-5.66-3.55-7.23-7.74-6.77-14.05.68-9.34,2.63-18.33,6.98-26.42,6.96-12.94,9.29-26.29,6.79-40.71-.49-2.84-2.41-7.28,1.54-8.61,3.33-1.14,5.58,2.54,7.53,5.12,5.39,7.12,5.87,15.65,6.01,23.96.14,9.04,1.57,17.6,4.49,26.12,4.11,11.99,4.44,23.79-3.57,34.68-1.22,1.65-3.11,3.84-.22,5.44,2.82,1.57,3.55-1.41,4.76-2.98,7.5-9.75,8.77-20.9,5.85-32.3-1.68-6.55.16-9.64,5.77-12.8,18.54-10.5,31.32-27.07,44.21-43.45,2.65-3.38,5.12-6.96,8.01-10.15,2.25-2.46,5.31-2.76,8.12-.89,3,2.03,2.79,4.74,1.38,7.85-4.14,8.93-10.42,16.35-16.46,23.96-6.06,7.63-12.05,15.29-18.08,22.9-2.03,2.57-3.01,5.52-.87,8.15,1.89,2.36,4.76,3.25,8.04,2.41,5.06-1.33,9.37-4.17,13.91-6.52,11.53-5.9,22.9-12.13,34.54-17.87,4.33-2.14,10.42-5.98,13.64-.35,3.33,5.82-2.84,8.88-7.34,11.4-15.32,8.55-30.7,17.03-46.07,25.53-3.63,2-7.82,4.11-6.42,9.01,1.54,5.5,6.44,3.49,10.31,3.17,16.13-1.3,32.27-2.68,48.43-3.93,3.52-.27,7.39-.57,7.63,4.68.24,4.79-3.11,5.77-6.82,6.28Z"/>
      <path class="cls-3" d="M781.19,1014.4c-.22,6.96-6.44,12.1-12.83,10.94-16.57-3-33.05-5.39-50.19-4.71-12.05.46-24.34-3.33-36.41-5.79-23.88-4.85-47.97-8.82-71.22-16.22-8.39-2.65-16.3-6.66-25.34-7.47-13.48-1.16-23.39-10.53-34.14-17.14-8.23-5.06-12.32-14.73-12.53-25.09-.08-3.76-.38-7.58.05-11.32,1.03-8.74-1.25-15.35-10.18-18.65-2.63-.95-4.2-3.41-5.14-6.01-1.89-5.31-6.2-6.23-10.5-4.71-10.4,3.68-21.63,8.12-29.26,14.78-11.13,9.75-20.57,22.36-24.63,38.03-3.55,13.51-2.87,27.21-4.36,40.77-.84,7.44-3.14,13.26-8.09,18.71-5.09,5.58-9.64,4.76-14.62.35-11.97-10.61-20.93-23.58-29.4-37.01-6.01-9.5-12.78-18.46-17.43-28.83-1.6-3.57-5.25-6.31-9.04-7.82-16.08-6.42-26.42-19.98-38.93-30.83-2.25-1.95-4.06-4.39-6.36-6.23-5.77-4.66-8.18-9.77-3.9-16.84,1-1.68.62-4.17.89-6.28,12.4,8.15,24.9,16.16,37.17,24.5,4.71,3.19,7.96,3.65,10.86-2.19,3.76-7.5,9.12-14,14.37-20.52,24.42-30.29,54.47-45.29,94.02-34.68,8.77,2.36,9.04,2.6,3.55,10.34-10.64,14.94-17.84,31.4-22.47,49.05-.73,2.84-2.52,6.17.97,7.96,3.09,1.57,4.71-1.87,6.44-3.65,14.78-15.21,31.43-27.96,49.62-38.79,4.87-2.9,7.01-2.25,8.85,3.06,2.38,6.9,4.93,13.7,6.09,20.93.38,2.36.05,5.2,2.79,6.25,2.9,1.14,4.33-1.57,6.04-3.11,19.73-17.79,43.2-24.63,69.33-24.01,4.39.11,7.8,1.62,10.64,4.87,15.27,17.27,16.7,36.63,8.66,57.39q-3.79,9.77,6.28,9.12c26.37-1.68,51.38,1.65,71.82,20.49,13.37,12.32,27.56,23.55,43.85,31.62,7.77,3.84,15.05,9.88,24.69,8.74Z"/>
      <path class="cls-12" d="M1107.39,585.63c-8.09-5.98-17.24-9.96-26.75-13.13-21.2-7.09-42.83-10.45-65.21-8.31-2.71.24-6.55,1.89-8.07-1.35-1.38-2.92,1.79-5.41,3.49-7.66,5.28-6.9,11.67-12.78,19.19-17.14,5.04-2.95,6.25-6.79,4.93-12.24-3.03-12.45-7.66-24.17-15.51-34.38-4.6-5.96-5.66-12.32-4.76-19.73.89-7.74,4.06-15.08,3.6-22.98-2.57,1.16-5.17,2.33-7.77,3.49,1.41,6.58-1.57,12.72-2.08,19.14-.7,9.18,1.54,16.95,6.47,24.36,5.87,8.83,10.07,18.41,13.13,28.56,1.46,4.82.46,8.2-4.11,10.86-10.04,5.79-17.76,14-23.09,24.28-2.46,4.74-6.5,6.69-11.29,8.31-12.45,4.25-25.5,7.23-36.06,15.78.08.65.14,1.27.22,1.89,2.76.41,5.39-.32,7.91-1.33,20.3-8.18,41.85-10.69,63.29-13.21,26.72-3.11,51.22,4.44,74.31,16.73.35,2.9-1.68,3.19-3.03,3.55-36.63,9.47-67.08,30.72-97.56,51.65-20.14,13.81-37.71,30.64-53.57,49.21-2.49,2.92-5.22,5.44-8.88,6.85-2.3.87-5.12,2.22-4.14,5.04,1.06,2.98,4.22,1.6,6.42,1.27,8.83-1.3,17.57-2.73,26.5-3.33,32.27-2.17,58.77,11.42,83.51,29.99.3.22.24.95.51,2.08-16.22,2.44-32.21,5.39-47.59,11.29-20.68,7.99-37.06,21.87-52.98,36.57-4.41,4.09-1.89,6.39,1.84,8.66,10.21,6.23,17.68,15,22.47,25.88,1.08,2.49,4.11,5.55,1.62,8.01-1.92,1.92-5.06-.51-7.47-1.35-17.7-6.23-35.84-10.02-54.63-10.53-2.98-.11-5.96-.08-8.91.03-2.17.05-5.09-.14-5.87,1.89-1.16,3,2.22,3.84,4.06,5.12,19.71,13.32,36.71,29.21,49.02,49.86,3.49,5.85,4.22,8.64-3.49,11.59-24.82,9.5-43.88,26.26-56.9,49.49-3.57,6.36-7.55,9.69-15.51,10.42-38.22,3.49-70.19,18.57-91.04,52.52-.14.24-.3.46-.43.68-8.23,13.7-8.36,13.91-22.55,6.31-13.35-7.15-26.48-14.86-37.63-25.2-20.22-18.73-43.61-28.32-71.41-27.1-10.56.46-10.29-.03-7.74-10.31,5.06-20.57,1.08-39.06-13.48-54.93-3.46-3.79-7.42-5.55-12.72-5.85-24.23-1.3-46.67,3.82-66.84,17.6-5.04,3.44-8.12,3.33-9.66-3.33-1.38-6.09-4.87-11.4-7.39-17.05-2.68-6.01-6.2-6.52-11.5-3.38-12.8,7.61-25.18,15.78-36.57,25.39-2.41,2.03-4.36,4.9-8.26,5.55-.81-4.09,1.35-7.28,2.84-10.48,4.87-10.58,10.45-20.79,17.97-29.75,3.63-4.33,3.09-6.69-2.22-8.88-31.73-13.16-61.23-8.91-88.76,11.02-13.94,10.1-25.77,22.28-34.19,37.41-2.98,5.36-5.74,6.01-10.67,2.3-6.93-5.17-13.94-10.45-21.58-14.35-9.83-4.98-12.64-12.94-13.18-22.98-.51-9.42-1.46-18.84-2.71-28.18-1-7.58-2.92-8.12-9.2-3.44-.87.65-1.62,1.43-2.52,2.03-2.52,1.71-4.36,6.5-7.63,4.39-2.49-1.62-.92-6.15-.43-9.2,4.28-25.5,16.59-46.59,35.92-63.56,13.62-11.91,13.48-12.91-1.95-21.55-21.03-11.78-42.91-17.6-66.86-11.13-4.49,1.19-5.71-.95-6.33-4.82-2.65-16.22-5.68-32.4-8.09-48.65-1.14-7.63-3.9-12.34-12.51-12.67-5.58-.19-11.15-1.79-16.68-3.03-2.79-.62-6.71-.08-7.88-3-1.27-3.22,2.33-5.12,4.3-7.15,6.98-7.23,14.94-13.37,24.04-17.65,34.7-16.35,70.74-22.9,108.69-13.72,2.84.7,7.12,2.3,4.93-3.22-6.74-16.81-9.69-34.76-16.16-51.68-20.49-53.63-51.87-100.03-92.47-140.39-2.6-2.6-5.98-4.6-7.34-8.74,5.74-2.92,12.37,1.46,17.7-2.44-.24-2.98-1.35-5.47-4.09-6.98-4.14,5.82-9.26.95-13.89,1.33-4.66.41-11.15-2.84-13.43,1.84-1.71,3.55,4.44,6.63,7.42,9.53,28.32,27.31,53.17,57.42,72.98,91.5,18.87,29.62,30.56,62.18,39.71,95.83,1.3,4.82.41,6.01-4.93,5.33-33.84-4.25-66.4.54-97.72,14.19-8.2,3.57-15.57,8.45-23.04,13.24v.03h-.03c-2.44,2.71-4.9,5.36-7.36,8.04-2.46,2.68-4.9,5.39-7.25,8.15-4.66,5.41-3.3,9.37,3.76,10.86,8.69,1.81,17.41,3.68,26.23,4.82,5.52.73,7.8,3.11,8.58,8.61,2.54,18.14,5.58,36.17,8.42,54.25.84,5.39,2.46,8.39,9.04,5.79,23.01-9.12,44.94-5.17,65.92,6.69,9.34,5.28,9.07,5.12,1.38,12.1-24.77,22.52-38.71,50.05-37.87,84.14.08,2.33-.76,5.22,1.89,6.58,3,1.57,4.93-1.03,6.98-2.65,3.63-2.87,6.63-6.69,11.88-8.61.79,9.69,1.52,18.52,2.22,27.31.49,6.28,1.33,12.4,6.36,16.95,12.4,8.15,24.9,16.16,37.17,24.5,4.71,3.19,7.96,3.65,10.86-2.19,3.76-7.5,9.12-14,14.37-20.52,24.42-30.29,54.47-45.29,94.02-34.68,8.77,2.36,9.04,2.6,3.55,10.34-10.64,14.94-17.84,31.4-22.47,49.05-.73,2.84-2.52,6.17.97,7.96,3.09,1.57,4.71-1.87,6.44-3.65,14.78-15.21,31.43-27.96,49.62-38.79,4.87-2.9,7.01-2.25,8.85,3.06,2.38,6.9,4.93,13.7,6.09,20.93.38,2.36.05,5.2,2.79,6.25,2.9,1.14,4.33-1.57,6.04-3.11,19.73-17.79,43.2-24.63,69.33-24.01,4.39.11,7.8,1.62,10.64,4.87,15.27,17.27,16.7,36.63,8.66,57.39q-3.79,9.77,6.28,9.12c26.37-1.68,51.38,1.65,71.82,20.49,13.37,12.32,27.56,23.55,43.85,31.62,7.77,3.84,15.05,9.88,24.69,8.74l.24.08c15.7-41.63,46.83-62.24,90.15-66.32,3.22-.3,6.44-1.19,9.64-1.03,4.87.24,7.88-1.65,10.61-5.68,6.33-9.37,12.7-18.81,20.03-27.4,12.86-15.08,28.75-25.88,48.29-30.67,3.65-4.2,1.43-8.07-.73-11.88-9.72-17.11-22.44-31.65-37.66-44.13-2.54-2.08-5.96-3.57-6.9-8.12,1.84,0,3.11-.11,4.36.03,20.49,2.3,40.31,7.2,59.2,15.67,2.06.92,4.39,2.9,6.66.6,1.95-1.98.22-4.2-.38-6.09-4.93-15.67-11.86-30.21-25.45-40.39-4.01-2.98-4.52-5.12-.79-8.83,13.29-13.08,28.15-23.5,45.86-29.7,16.7-5.85,34-8.42,51.57-9.53,2.57-.16,5.87.68,7.01-2.6,1.14-3.25-1.87-4.76-3.76-6.52-3.76-3.47-7.63-6.82-11.48-10.21-8.36-4.85-16.68-9.83-25.15-14.54-21.71-12.02-45.05-15.43-69.52-12.26-1.33-2.98.79-4.76,2.27-6.36,22.44-24.34,47.67-45.23,76.74-61.29.68-.38,1.54-.43,2.33-.65,1.3-.95,2.49-2.08,3.9-2.82,21.74-11.42,43.34-23.15,67.51-28.86,2.25-.54,5.36-.57,6.09-3.3.87-3.36-2.46-4.49-4.47-5.98ZM476.18,903.9l-.35-.3.43-.16-.08.46Z"/>
      <path class="cls-10" d="M398.3,356.48c.27.27.49.51.65.78-.3-.22-.57-.49-.78-.78h.14Z"/>
      <path class="cls-10" d="M477.64,368.93c.03-.38.35-.76.92-1.06l.03.03c-.32.43-.65.79-.95,1.03Z"/>
      <path class="cls-10" d="M554.69,486.45c-1.41,3.57-6.69,2.33-10.21,2.95-15.43,2.71-31.05,3.95-46.67,4.85-3.87.22-7.58.54-9.53,4.71-2.25,4.74-4.68,3.36-7.01.03-4.76-6.88-9.56-13.72-14.21-20.65-23.96-35.6-47.97-71.14-71.66-106.9-2.03-3.09-7.04-4.68-5.79-9.75,2.73-.6,5.5-1.06,8.18-1.87,1.68-.51,1.89-1.49,1.16-2.54,3.98,3.19,14.13,1.16,17.92-3.98,5.28,2.79,8.72-1.57,12.51-3.57,12.05-6.42,11.94-6.58,21.85,2.19,6.44,5.68,13.35,10.8,20.84,14.97,1.57.89,3.3,3.87,5.58,2.06-.05.35.11.76.49,1.19,2.19,1.52,4.39,3,6.58,4.49,11.78,40.34,38.55,71.25,64.43,102.76,2.27,2.76,7.01,5.39,5.55,9.07Z"/>
      <path class="cls-3" d="M348.22,616.58c-33.84-4.25-66.4.54-97.72,14.19-8.2,3.57-15.57,8.45-23.04,13.24v.03h-.03c0-1.16-.08-2.27-.22-3.36-.46-3.25-1.73-6.15-4.3-9.01-5.04-5.63-.76-12.43.27-18.3,4.01-22.74,17.03-40.9,32.51-57.15,6.98-7.31,12.56-16,21.28-21.82,6.47-4.3,12.37-9.29,20.49-10.29,6.39-.78,11.13-4.9,15.97-8.69,18.87,29.62,30.56,62.18,39.71,95.83,1.3,4.82.41,6.01-4.93,5.33Z"/>
      <path class="cls-3" d="M946.99,921.55c-9.8,9.15-20.28,17.54-30.59,26.12-8.26,6.88-17,13.26-27.07,16.95-21.09,7.66-39.52,20.09-59.04,30.62-15.11,8.12-31.1,16.62-48.86,19.25,15.7-41.63,46.83-62.24,90.15-66.32,3.22-.3,6.44-1.19,9.64-1.03,4.87.24,7.88-1.65,10.61-5.68,6.33-9.37,12.7-18.81,20.03-27.4,12.86-15.08,28.75-25.88,48.29-30.67.54,2.92,1.11,5.82,1.68,8.72,2.52,13.54-6.39,21.63-14.83,29.45Z"/>
      <path class="cls-3" d="M1050,706.69c-1.84,4.57-1.6,9.99-2.33,15-8.36-4.85-16.68-9.83-25.15-14.54-21.71-12.02-45.05-15.43-69.52-12.26-1.33-2.98.79-4.76,2.27-6.36,22.44-24.34,47.67-45.23,76.74-61.29.68-.38,1.54-.43,2.33-.65,2.57,7.61,8.2,13.08,14.48,17.11,4.76,3.09,6.85,6.85,6.96,11.69.46,17.33.87,34.65-5.79,51.3Z"/>
      <path class="cls-5" d="M1265.21,339.24c.08,6.12-3.87,8.99-8.83,11.29-27.86,12.97-55.66,26.1-83.54,39.04-26.64,12.37-53.36,24.61-80.07,36.84-3.68,1.71-7.39,3.3-11.18,4.66-2.76,1-6.42,2.52-8.12-.62-2.03-3.74,2.17-4.87,4.47-6.23,16.51-9.69,32.94-19.46,49.67-28.78,36.98-20.55,74.07-40.88,110.48-62.45,3.25-1.92,6.61-3.65,10.02-5.31,9.1-4.39,17.33,1.22,17.11,11.56Z"/>
      <path class="cls-5" d="M219.58,529.68c-.68,4.06-4.95,1.16-7.25,2.06-28.4-2.63-56.5-5.31-84.6-7.8-20.65-1.81-41.31-3.38-61.94-5.12-19.03-1.6-38.03-3.38-57.09-4.82-6.52-.49-9.26-3.63-8.61-9.94.68-6.52,4.63-8.72,10.72-7.82,15.94,2.38,31.89,4.85,47.83,7.17,31.92,4.63,63.83,9.23,95.75,13.78,19.68,2.82,39.39,5.52,59.07,8.36,2.65.38,6.58,1.3,6.12,4.11Z"/>
      <path class="cls-5" d="M1304.73,582.03c-39.63,4.14-79.29,7.69-119.08,9.56-5.14,0-10.26.11-15.4-.05-2.35-.05-5.79-.14-6.12-2.63-.41-2.9,3.06-3.14,5.33-3.63,13.16-2.71,26.29-5.9,39.55-7.9,30.59-4.6,61.26-8.58,91.88-12.83,4.58-.65,8.53-.14,8.04,5.79-.35,4.17,5.36,10.72-4.2,11.69Z"/>
      <path class="cls-5" d="M384.49,219.21c-.3,2.22.6,4.95-2.27,5.58-2.36.51-3.03-1.87-3.82-3.49-15.78-32.19-31.48-64.43-47.27-96.61-3.03-6.15-.84-9.64,5.2-11.59,5.5-1.81,11.37-4.11,14.08,3.68,11.34,32.84,22.5,65.73,33.68,98.62.43,1.25.3,2.65.41,3.82Z"/>
      <path class="cls-5" d="M154.53,386.34c-2.76,3.82-6.74-1.19-9.69-2.9-26.61-15.29-53.09-30.83-79.61-46.29-3.52-2.06-6.69-4.6-4.52-8.96,2.46-4.93,5.14-10.02,10.18-12.26,3.52.27,5.77,1.79,7.85,3.49,23.36,19,46.8,37.93,70,57.15,2.9,2.41,9.18,5.09,5.79,9.77Z"/>
      <path class="cls-5" d="M138.59,680.57c-28.42,14.27-56.88,28.53-85.41,42.58-10.29,5.06-17.51,1.81-17.54-7.93-.76-4.66,2.63-6.82,6.63-8.28,9.61-3.52,19.25-6.96,28.91-10.34,21.33-7.53,42.66-15,63.99-22.47,2.98-1.06,6.69-3.19,8.31,1.14,1.25,3.36-2.65,4.2-4.9,5.31Z"/>
      <path class="cls-5" d="M965.51,99.31c-14.73,27.26-31.62,53.19-47.86,79.53-.97,1.62-2.14,3.11-4.11,3.76-3.49-.76-4.09-3.33-3.22-6.14,1.03-3.33,2.49-6.52,3.98-9.69,11.67-24.58,23.39-49.13,35.11-73.66,2.08-4.33,4.39-7.96,10.42-6.2,8.5,2.49,9.85,4.63,5.69,12.4Z"/>
      <path class="cls-5" d="M1232.72,768.87c-.27,9.12-6.04,13.05-13.81,8.83-20.09-10.96-40.01-22.22-60.02-33.35-1.62-.92-3.93-1.71-3.28-3.98.84-2.84,3.19-2.11,5.36-1.41,9.23,2.92,18.49,5.74,27.72,8.66,11.8,3.74,23.61,7.5,35.35,11.34,4.79,1.54,9.29,3.52,8.66,9.91Z"/>
      <path class="cls-1" d="M478.59,367.91c-.32.43-.65.79-.95,1.03-2.27,1.81-4.01-1.16-5.58-2.06-7.5-4.17-14.4-9.29-20.84-14.97-9.91-8.77-9.8-8.61-21.85-2.19-3.79,2-7.23,6.36-12.51,3.57v-.03c2.92-5.79,9.42-5.63,14.13-8.42,11.8-6.93,11.83-6.55,22.33,2.46,8.23,7.07,16.81,13.7,25.23,20.57l.03.03Z"/>
      <path class="cls-9" d="M854.25,432.79l-.11-.05c-1.98.46-3.09-.87-3.84-2.22-9.58-17.11-23.61-30.35-37.6-43.64,1.76-1.27,2.06-4.06,4.68-4.39-1.84,4.52,2.49,5.33,4.6,7.23,13.62,12.24,26.12,25.26,32.27,43.07Z"/>
      <path class="cls-9" d="M445.24,274.49c-2.36-9.07-1.92-18.14,0-27.18,1.19,9.04.6,18.11,0,27.18Z"/>
      <path class="cls-1" d="M416.87,353.26v.03c-3.79,5.14-13.94,7.17-17.92,3.98-.3-.22-.57-.49-.78-.78h.14c6.33-.32,11.91-5.06,18.57-3.22Z"/>
      <path class="cls-13" d="M397.79,359.81c-2.68.81-5.44,1.27-8.18,1.87-1.25-1.46-2.46-2.92-3.68-4.36,4.06-.3,8.15-.57,12.24-.84h.14c.27.27.49.51.65.78.73,1.06.51,2.03-1.16,2.54Z"/>
      <path class="cls-9" d="M484.71,374.62c-2.19-1.49-4.39-2.98-6.58-4.49.76-.78,1.49-1.57,2.25-2.38,1.41-.05,2.82-.11,4.25-.16.03,2.36.05,4.68.08,7.04Z"/>
      <path class="cls-9" d="M484.06,353.96c-.76-1.81-1.52-3.6-2.27-5.41,3.63.6,3.49,2.79,2.27,5.41Z"/>
      <path class="cls-9" d="M446.92,287.42c-1.52-.97-1.73-2.25-.89-3.76,1.22,1.03,1.71,2.25.89,3.76Z"/>
      <path class="cls-9" d="M448.62,295.49c-1.57-.92-1.79-2.19-.97-3.74,1.27,1,1.73,2.22.97,3.74Z"/>
      <path class="cls-9" d="M447.51,236.51c-.7-1.6-.41-2.84,1.22-3.65.65,1.57.03,2.71-1.22,3.65Z"/>
      <path class="cls-1" d="M480.38,367.74c-.76.81-1.49,1.6-2.25,2.38-.38-.43-.54-.84-.49-1.19.03-.38.35-.76.92-1.06.6-.05,1.19-.08,1.81-.14Z"/>
      <path class="cls-16" d="M1118.49,300.09c-5.47-13.26-12.78-26.31-26.2-33.92-4.76-2.71-9.34-3.25-14.18.7-4.2,3.41-8.28,6.88-12.1,10.67-3.47,3.44-7.23,5.79-12.18,2.6-1.71-1.11-3.6-1.65-4.98.43-1.43,2.14.38,3.47,1.62,4.82,1.52,1.68,2.87,3.41,1.46,5.74-1.33,2.19-3.52,2.46-5.71,1.87-9.85-2.71-19.9-.57-29.8-1.33-5.79-.46-10.83,1.46-14.89,5.14-34.95,31.81-68.06,65.48-100.35,99.97-6.61,7.07-13.24,14.21-18.92,22.01-12.67,17.33-27.69,32.76-39.74,50.7-6.98,10.42-13.75,21.79-24.96,29.18-4.98,3.3-4.6,7.44,1.46,10.31,4.87,2.33,9.69,4.55,14.97,5.9,2.3.62,4.74,2,4.33,5.06-.41,3.03-2.84,3.6-5.47,3.6-1.89,0-3.84.3-5.66-.08-30.75-6.55-61.64-12.56-91.36-23.04-5.98-2.11-8.96-.27-10.37,4.98-4.47,16.68-16.68,26.42-31.37,32.35-31.67,12.8-64.59,13.37-97.24,4.71-18.68-4.95-33.97-16.03-42.61-34.35-2.73-5.82-7.31-6.31-12.83-5.28-20.09,3.71-39.71,9.15-59.39,14.67-10.99,3.06-22.22,6.5-33.97,6.06-2.76-.08-5.77.05-6.42-3.47-.65-3.52,2.38-4.63,4.85-5.5,5.58-1.95,11.21-3.57,17.19-4.14,6.98-.68,7.85-3.28,4.57-9.64-3.6-7.07-9.77-12.24-13.67-18.95-18.38-31.67-39.66-61.5-60.07-91.82-22.22-32.97-46.24-64.75-69.46-97.02-6.36-8.85-13.21-18.27-23.66-21.28-12.48-3.57-25.39-5.01-33.84-16.43-.3-.38-.92-.62-1.43-.73-10.37-2.33-16.24-9.77-21.33-18.33-4.17-7.04-9.37-8.2-16.19-3.76-6.55,4.25-13.51,8.12-19.22,13.32-17.16,15.62-18.44,18.52-6.88,35.68,5.17,7.66,6.9,15.67,3.03,25.2-2.63,6.44-2.3,13.56,3.6,20.14,6.61,7.36,14.05,14.1,19.46,22.63,11.8,18.62,24.47,36.6,39.88,52.63,10.04,10.45,19.46,21.55,28.61,32.81,12.34,15.24,24.61,30.56,36.09,46.45,15.13,20.95,31.16,41.15,48.38,60.39,13.26,14.83,22.85,32.73,38.39,45.64,10.12,8.39,19.38,17.84,33.38,20.06,10.45,1.65,15.46-1.92,15.54-12.51.03-4.49-1.76-8.96-.08-13.51.68-1.79-.97-5.12,2.25-5.09,2.57,0,2.44,3.03,2.87,5.12,6.12,28.34,10.26,56.98,14.29,85.65,3.25,22.82,8.47,45.29,8.8,68.6.22,17.14,2.71,34.27,2.76,51.49.03,4.33-1.98,5.77-5.74,6.01,10.07,10.5,20.17,21.01,30.21,31.54,2.57,2.68,4.95,4.28,9.18,2.95,35.22-11.21,70.79-8.31,106.33-1.89,25.5,4.6,51.03,3.68,76.5.84,22.71-2.57,45.34-6.09,67.3-12.94,1.46-5.14-5.87-6.96-4.39-12.34,4.98-17.87,2.19-36.38,3.95-54.55,1.41-14.67,2.22-29.48,4.01-44.12,3.65-30.29,8.23-60.53,12.7-90.74,1.79-11.91,4.33-23.74,6.52-35.6.3-1.68,1.03-3.41,2.87-3.28,2.19.19,1.92,2.33,1.84,3.84-.35,6.44.62,12.86-1.08,19.33-2.14,8.07,1.03,11.5,9.45,11.64,3.25.05,6.33-.46,9.53-1.3,12.26-3.28,21.28-11.53,29.91-19.9,19.98-19.36,39.5-39.23,59.12-58.96,5.52-5.52,12.59-9.39,17.22-15.84,14.35-20.06,32.16-37.44,50.3-53.46,16.05-14.18,31.73-29.26,49.43-42.04,24.2-17.49,42.96-41.55,65.48-61.29,2.19-1.95,3-3.93,1.43-7.09-6.17-12.37-4.39-17.46,5.41-26.37,6.17-5.6,15-12.64,11.29-21.58ZM623.91,601.04c-3.84,1.46-9.12,3.47-11.88-.97-3.14-4.98-.89-10.12,3.57-15.43,2.17,10.96,8.66,9.12,15.46,6.82,8.26-2.79,16.73-4.66,27.91-4.95-13.02,5.44-23.93,10.26-35.06,14.54Z"/>
      <path class="cls-14" d="M1099.21,587.58c-23.09-12.29-47.59-19.84-74.31-16.73-21.44,2.52-42.99,5.04-63.29,13.21-2.52,1-5.14,1.73-7.91,1.33-15.46,7.5-25.09,20.95-34.95,34.38.76-10.02,5.93-17.84,10.69-26.15,5.79-10.12,14.32-10.8,24.04-10.12,10.56-8.55,23.61-11.53,36.06-15.78,4.79-1.62,8.83-3.57,11.29-8.31,5.33-10.29,13.05-18.49,23.09-24.28,4.58-2.65,5.58-6.04,4.11-10.86-3.06-10.15-7.26-19.73-13.13-28.56-4.93-7.42-7.17-15.19-6.47-24.36.51-6.42,3.49-12.56,2.08-19.14-5.74,4.39-12.37,7.99-17.08,13.29-31.97,36.14-65.84,70.44-99.97,104.52,2.06,16.46-.73,32.46-3.95,48.51-.97,4.95-.46,10.21-.62,15.32,8.53,17.41,14.43,35.6,15.84,55.06.24,3.41,1.33,6.88-.33,10.26.95,2.95,1.89,5.93,2.82,8.91,1.25.46,2.49.95,3.71,1.41,5.47,2.06,5.87,3.84.92,7.9-13.54,11.1-22.58,25.55-30.1,43.34,7.2-3.38,9.12-8.61,11.86-13.16.95-1.62,1.81-4.01,3.95-3.11,2.22.95,1.11,3.11.41,4.87-6.28,16.19-17.03,28.72-31.75,37.57-37.98,22.77-79.53,35.49-122.85,43.18-17.3,3.09-34.7,4.6-52.25,4.98-4.01.08-7.99.87-14.59,1.65,10.77,7.36,19.71,13.48,28.61,19.6,7.07-1.16,13.05,1.14,19,4.85,18.38,11.53,33.81,25.45,41.47,46.56,4.66,12.83,3.71,25.88,2.33,38.98-.27,2.63-.76,5.93-4.63,7.85-1.87-5.66-3.55-11.15-5.44-16.57-5.5-15.62-15.48-28.64-24.58-42.18-4.3-1.54-6.98-5.12-9.8-8.26-40.36-44.94-91.47-63.02-150.81-60.5-17.43.73-33.08,6.96-47.97,15.65-4.52,2.63-8.74,6.15-14.24,6.66-.32-.92-.76-1.6-.6-1.81,7.85-9.61,2.84-16.4-4.01-24.17-31.94-36.25-68.33-66.7-112.07-87.76-8.69-4.2-17.7-7.66-27.02-11.67,5.25-2.65,8.85-1.73,29.16,4.93,9.69,3.19,18.46,8.53,29.62,12.61-3.9-9.61-7.34-17.62-10.42-25.77-5.66-14.89-11.07-29.86-16.62-44.77-3.52-9.37-7.28-18.6-14.54-25.93-1.22-1.25-3.19-2.73-2-4.82,1.11-2,3.49-1.62,5.09-.87,4.63,2.11,6.82-.78,9.45-3.71,8.72-9.72,14.56-21.22,20.71-32.57-1.79-4.6-4.74-8.47-7.96-12.07-40.58-45.64-78.69-93.23-114.54-142.66-8.42-11.64-18.68-21.6-30.29-30.1-5.33,3.9-11.97-.49-17.7,2.44,1.35,4.14,4.74,6.15,7.34,8.74,40.61,40.36,71.98,86.76,92.47,140.39,6.47,16.92,9.42,34.87,16.16,51.68,2.19,5.52-2.08,3.93-4.93,3.22-37.95-9.18-73.98-2.63-108.69,13.72-9.1,4.28-17.05,10.42-24.04,17.65-1.98,2.03-5.58,3.93-4.3,7.15,1.16,2.92,5.09,2.38,7.88,3,5.52,1.25,11.1,2.84,16.68,3.03,8.61.32,11.37,5.04,12.51,12.67,2.41,16.24,5.44,32.43,8.09,48.65.62,3.87,1.84,6.01,6.33,4.82,23.96-6.47,45.83-.65,66.86,11.13,15.43,8.64,15.57,9.64,1.95,21.55-19.33,16.97-31.65,38.06-35.92,63.56-.49,3.06-2.06,7.58.43,9.2,3.28,2.11,5.12-2.68,7.63-4.39.89-.6,1.65-1.38,2.52-2.03,6.28-4.68,8.2-4.14,9.2,3.44,1.25,9.34,2.19,18.76,2.71,28.18.54,10.04,3.36,18,13.18,22.98,7.63,3.9,14.65,9.18,21.58,14.35,4.93,3.71,7.69,3.06,10.67-2.3,8.42-15.13,20.25-27.31,34.19-37.41,27.53-19.92,57.04-24.17,88.76-11.02,5.31,2.19,5.85,4.55,2.22,8.88-7.53,8.96-13.1,19.17-17.97,29.75-1.49,3.19-3.65,6.39-2.84,10.48,3.9-.65,5.85-3.52,8.26-5.55,11.4-9.61,23.77-17.79,36.57-25.39,5.31-3.14,8.82-2.63,11.5,3.38,2.52,5.66,6.01,10.96,7.39,17.05,1.54,6.66,4.63,6.77,9.66,3.33,20.17-13.78,42.61-18.9,66.84-17.6,5.31.3,9.26,2.06,12.72,5.85,14.56,15.86,18.54,34.35,13.48,54.93-2.54,10.29-2.82,10.77,7.74,10.31,27.8-1.22,51.19,8.36,71.41,27.1,11.15,10.34,24.28,18.06,37.63,25.2,14.18,7.61,14.32,7.39,22.55-6.31.14-.22.3-.43.43-.68,20.84-33.95,52.81-49.02,91.04-52.52,7.96-.73,11.94-4.06,15.51-10.42,13.02-23.23,32.08-39.98,56.9-49.49,7.72-2.95,6.98-5.74,3.49-11.59-12.32-20.65-29.32-36.55-49.02-49.86-1.84-1.27-5.22-2.11-4.06-5.12.78-2.03,3.71-1.84,5.87-1.89,2.95-.11,5.93-.14,8.91-.03,18.79.51,36.92,4.3,54.63,10.53,2.41.84,5.55,3.28,7.47,1.35,2.49-2.46-.54-5.52-1.62-8.01-4.79-10.88-12.26-19.65-22.47-25.88-3.74-2.27-6.25-4.57-1.84-8.66,15.92-14.7,32.3-28.59,52.98-36.57,15.38-5.9,31.37-8.85,47.59-11.29-.27-1.14-.22-1.87-.51-2.08-24.74-18.57-51.24-32.16-83.51-29.99-8.93.6-17.68,2.03-26.5,3.33-2.19.32-5.36,1.71-6.42-1.27-.97-2.82,1.84-4.17,4.14-5.04,3.65-1.41,6.39-3.93,8.88-6.85,15.86-18.57,33.43-35.41,53.57-49.21,30.48-20.93,60.94-42.18,97.56-51.65,1.35-.35,3.38-.65,3.03-3.55ZM884.6,900.06c-1.98,5.12-4.68,10.99-10.04,11.8-4.66.7-5.33-6.01-7.53-9.39-15.59-23.98-37.95-39.17-63.83-49.73-10.21-4.17-20.79-7.44-31.19-11.13-2.17-.78-4.85-.81-5.93-5.2,10.94,2.95,21.49,3.11,32.02,3.65,17.7.89,35,4.79,52.19,9.15,11.21,2.82,19.57,8.45,24.42,19.06,2.79,6.09,8.01,10.77,9.83,17.54,1.27,4.85,1.87,9.56.05,14.24Z"/>
      <path class="cls-8" d="M808.96,287.75c-2.79-.3-5.55-.65-6.44,3.03-.3,1.3-.46,2.65-.7,3.98-4.74,26.18-25.42,48-50.51,53.3-27.4,5.77-54.14-4.79-69.6-27.4-1.57-2.33-2.22-6.44-5.82-5.87-3.68.54-1.79,5.06-4.22,8.39,0-8.07.16-15.08-.03-22.06-.19-7.01-.76-14.02-1.08-21.03-.16-3.3.03-7.01-3.3-8.64-6.96-3.36-14.62-4.55-22.06-2.84-5.98,1.38-4.87,7.88-6.04,12.29-10.04,38.25-52.73,59.61-89.17,44.42-27.91-11.64-41.39-32.89-41.34-65.08,0-3.76.87-7.77-5.14-7.96-5.39-.16-5.2,3.44-5.6,6.96-3.71,32.27-4.93,64.59-3.6,97.05.81,20.14,6.06,38.93,17.19,55.79,18.22,27.56,39.47,52.73,61.04,77.64,12.34,14.21,27.26,22.85,46.26,25.69,25.53,3.82,48.81,2.44,70.52-14.32,20.3-15.65,41.47-30.21,60.99-46.89,16.76-14.32,32.62-29.78,39.71-51.27,11.75-35.73,20.36-72.2,22.22-109.96.14-2.79.05-4.85-3.28-5.22ZM613.97,343.33c1.65-1.73,2.92.16,2.79,2-.19,2.41-.92,4.76-1.22,7.17-.51,4.41,1.46,6.98,5.96,6.42,5.66-.7,10.07,1.52,13.89,5.17,5.74,5.55,12.32,5.22,18.73,2.33,5.12-2.3,9.91-4.14,15.46-2,3.93,1.52,5.5-1,6.2-4.22.7-3.25,1.14-6.58,2-11.72,4.01,6.58,4.41,11.34,1.84,16.57-2.25,4.6-5.82,6.06-10.58,5.36-5.87-.89-10.45,2.19-15,5.06-7.2,4.57-13.89,4.11-19.79-1.98-4.85-5.01-10.04-8.8-17.33-9.34-3.95-.3-6.33-3.09-6.5-7.09-.19-4.9-.03-9.96,3.55-13.72ZM649.41,483.52c-11.4,3.06-22.2-1.08-33.13-3.22-2.25-.43-5.36-1.98-4.22-4.82,1.49-3.74,4.68.57,7.39-.84,9.42,2.6,19.38,1.95,29.29,2.08,2.73.05,5.98-.05,6.17,3.55.19,3.63-3.44,2.71-5.5,3.25ZM717.38,407.48c-2.98,1.06-4.33,3.87-6.04,6.31-7.34,10.67-15,21.11-22.09,31.92-11.02,16.76-26.2,25.18-42.88,24.31-32.05.97-49.35-9.66-60.67-35.57-5.52-12.59-10.48-25.42-15.73-38.14-1-2.46-1.57-5.14-4.11-6.77-2.19-1.38-6.77-1.76-3.98-6.06,2.22-3.41,5.98-5.31,9.83-3.03,16.35,9.64,34.6,13.4,52.84,16.89,26.42,5.06,53.09,5.41,79.75,2.3,3.17-.35,6.12-2.11,9.29-2.54,3.33-.49,6.61.41,7.96,4.06,1.46,3.84-1.06,5.2-4.17,6.33Z"/>
      <path class="cls-8" d="M816.43,237.18c-3.06-19.33-2.79-38.77-2.03-58.2.22-5.39.27-10.83-.16-16.22-2.68-32.76-22.41-50.43-55.17-49.49-10.56.3-20.98,1.98-31.29,4.11-24.31,5.06-48.62,6.69-73.04.43-16.16-4.14-30.24-12.97-45.32-19.46-42.91-18.52-80.99,1.89-88.9,47.75-2.63,15.21-5.5,30.26-11.42,44.61-4.9,11.83-6.82,24.42-7.93,37.09-.3,3.11-2.17,7.28,3.28,8.5,4.52,1.03,8.31,1.22,10.77-3.98,3.36-7.12,8.07-13.45,13.81-18.87,37.71-35.49,97.81-18.16,110.34,32,1.62,6.5,4.06,8.88,10.88,8.39,5.01-.35,10.86-1.16,14.83,3.74,1.57-2.49,3.19-.65,4.79-.05,4.09,1,5.55-1.62,7.31-4.66,2.38-4.17,2.92-9.83,8.53-11.67l.16-.19c-1.54-2.36.76-3.41,1.79-4.66,19.9-23.77,58.2-28.88,84.03-11.75,15.13,10.04,25.42,23.23,29.29,41.07,1.11,5.14,3.6,7.12,8.96,6.9,5.85-.24,5.39-4.47,5.82-7.96,1.16-9.12,2.11-18.3.68-27.45ZM633.76,204.26c-4.09,5.5-8.55,2.3-12.86.05-12.15-6.33-23.77-13.91-37.93-15.51-16.24-1.81-31,1.98-44.61,10.8-3.28,2.14-6.42,4.68-10.61,5.63,1.71-12.43,19.33-31.13,32.08-33.65,26.23-5.2,49.62,2.76,71.44,16.62,4.76,3,5.82,11.59,2.49,16.05ZM780.92,223.11c-16.19-13.32-34.62-18.27-55.28-13.94-7.12,1.49-14.13,3.55-21.28,4.93-3.79.73-8.69,4.17-10.75-2.57-2.17-7.12.14-13.62,5.98-15.67,12.05-4.2,24.58-6.12,37.33-6.5,16.7-.54,32.38,2.33,44.86,14.54,8.96,8.77,12.43,20.19,13.7,32.78-4.85-4.55-9.45-9.37-14.56-13.56Z"/>
      <path class="cls-1" d="M790.89,59.66c12.96,10.45,22.63,23.73,30.77,37.93,13.26,23.11,18.95,48.03,19.02,74.97.06,25.1-4.04,49.59-6.11,75.75-6.75-7.1-8.39-15.13-8.72-22.77-.8-18.29-3.11-36.59-1.7-54.91.66-8.58.94-16.93.1-25.6-2.69-28.02-28.16-53.2-58.83-46.52-2.13.46-4.66.86-6.17-.87-4.81-5.5-10.1-3.44-15.6-1.63-10.5,3.44-20.92,7.18-31.6,9.95-22.76,5.91-44.74,3.94-66.71-5.29-13.18-5.54-23.83-16.19-38.25-18.61-7.63-1.28-13.88-6.54-21.2-7.33-16.33-1.76-31.54,2.58-45.34,11.6-.22.15-.36.43-.59.55-23.96,11.43-26.97,34.08-30.64,56.58-3.03,18.61-11.62,35.4-18.13,52.97-2.33-13.2-.49-26.1,2.05-38.78,5.73-28.6,12.88-56.91,30.47-80.93,13.46-18.37,28.86-34.87,52.06-41.22,1.34-.12,2.67-.25,3.34-1.7,0,0-.09.05-.09.05,2.8-.19,5.88,1,8.19-1.64,12.3-3.93,24.9-6.53,37.55-9.02,26.13-5.15,52.35-5.27,78.72-2.36,11.24,1.24,20.74,7.34,31.26,10.32,15.35,4.35,28.79,11.69,41.12,21.63,4.28,3.45,8.83,7.21,15.02,6.91Z"/>
      <path class="cls-7" d="M1211.08,294.48c-4.03-.47-8.1-.68-12.07-1.45-18.53-3.58-36.55-3.92-52.89,7.61-.64.45-1.48.65-2.24.93-12.75,4.6-12.69,4.57-18.32-7.59-7.1-15.35-17.86-27.68-32.13-36.63-5.65-3.55-7.23-7.74-6.77-14.06.68-9.32,2.64-18.32,7-26.42,6.95-12.93,9.29-26.27,6.8-40.7-.49-2.85-2.41-7.28,1.54-8.62,3.31-1.13,5.58,2.55,7.53,5.14,5.37,7.11,5.86,15.65,5.99,23.94.14,9.04,1.57,17.6,4.5,26.13,4.13,11.99,4.44,23.81-3.58,34.69-1.22,1.65-3.1,3.83-.21,5.44,2.82,1.57,3.56-1.41,4.76-2.98,7.49-9.75,8.78-20.9,5.85-32.3-1.69-6.56.17-9.63,5.78-12.81,18.55-10.48,31.31-27.07,44.19-43.44,2.67-3.39,5.14-6.96,8.03-10.15,2.24-2.47,5.3-2.78,8.11-.9,3.01,2.02,2.81,4.75,1.38,7.84-4.12,8.95-10.42,16.37-16.46,23.98-6.05,7.61-12.03,15.28-18.08,22.9-2.03,2.57-3,5.5-.87,8.14,1.91,2.36,4.76,3.26,8.04,2.4,5.06-1.32,9.36-4.17,13.9-6.5,11.53-5.92,22.91-12.15,34.54-17.87,4.35-2.14,10.44-5.99,13.67-.35,3.33,5.82-2.84,8.88-7.34,11.39-15.33,8.55-30.71,17.04-46.08,25.53-3.63,2-7.81,4.12-6.42,9.02,1.56,5.5,6.46,3.48,10.32,3.17,16.15-1.29,32.29-2.68,48.44-3.93,3.52-.27,7.38-.56,7.63,4.69.23,4.79-3.12,5.76-6.81,6.28-15.52,2.18-31.04,4.33-46.56,6.51-2.41.34-4.82.66-7.2,1.13-3.61.71-5.96,2.94-5.99,6.61-.03,3.8,3.24,4.6,6.18,5.25,12.39,2.74,24.79,5.42,37.19,8.12,1.58.34,3.22.52,4.73,1.05,2.76.97,4.91,2.77,4.32,5.97-.65,3.49-3.57,3.53-6.37,3.3-1.35-.11-2.68-.32-4.02-.48,0,.01,0,.03,0,.04Z"/>
      <path class="cls-7" d="M98.26,189.21c12.09,3.28,25.62,6.99,39.17,10.62,3.64.97,7.3,1.98,11.02,2.49,3.25.45,6.74.3,8.28-3.45,1.63-3.97-1.39-5.87-3.95-7.89-14.64-11.54-29.29-23.07-43.9-34.65-1.67-1.33-3.49-2.71-4.56-4.48-1.24-2.05-1.96-4.71-.09-6.84,1.69-1.93,4-2.49,6.61-1.67,5.82,1.85,10.47,5.6,15.02,9.39,10.8,9,21.82,17.7,33.76,25.16,2.88,1.8,5.83,4.86,9.45,1.88,3.82-3.14,2.95-7.28,1.16-11.12-1.59-3.41-3.62-6.62-5.39-9.96-6.2-11.69-12.45-23.35-18.51-35.11-2.23-4.33-5.18-10.08.35-12.94,6.04-3.13,8.97,2.92,11.27,7.47,6.72,13.28,14,26.2,22.8,38.23,4.64,6.35,9.45,12.68,15.76,17.34,5.76,4.26,6.83,8.32,4.02,15.02-4.43,10.57-4.67,21.59.7,32.15.87,1.7,1.65,4.97,4.16,4,3.16-1.21,1.54-4.24.54-6.3-6.09-12.54-3.17-24.16,3.37-35.45,4.37-7.55,7.35-15.43,8.56-24.21,1.15-8.29,3.69-16.44,10.19-22.45,2.11-1.95,4.91-4.41,7.8-2.53,2.22,1.44,1.07,4.66.27,6.83-5.51,14.8-5.45,29.42-.07,44.32,1.7,4.7,1.51,10.11,2.02,15.2,1.26,12.35-1.86,20.85-15.17,26.22-14.88,6-26.21,17.96-34.98,31.62-3.19,4.97-6.32,5.97-11.13,2.58-2.19-1.54-5.2-2.13-7.03-3.96-14.7-14.74-33.42-16.19-52.6-16.37-4.86-.05-9.72-.33-14.58-.58-2.57-.13-5.2-.88-5.44-3.79-.26-3.15,2.16-4.84,4.98-5.49,2.08-.47,4.28-.51,6.42-.6,11.07-.45,22.14-.83,33.21-1.28,4.26-.17,9.52.54,10.43-5.2,1.01-6.39-4.8-6.93-8.98-8.32-14.1-4.7-28.26-9.24-42.39-13.85-2.82-.92-5.79-1.62-7.87-3.95-1.47-1.65-2.63-3.59-1.71-5.89,1.01-2.5,3.3-2.41,7.04-2.2Z"/>
      <path class="cls-15" d="M907.23,708.07c1.24.47,2.48.95,3.72,1.42,5.45,2.06,5.85,3.83.9,7.9-13.53,11.1-22.55,25.56-30.1,43.35,7.2-3.37,9.15-8.62,11.86-13.17.96-1.61,1.83-3.99,3.97-3.09,2.21.92,1.09,3.1.4,4.87-6.28,16.17-17.02,28.72-31.76,37.56-37.97,22.77-79.52,35.49-122.84,43.19-17.3,3.08-34.7,4.59-52.25,4.96-4,.09-7.98.88-14.6,1.66,10.77,7.37,19.7,13.48,28.62,19.59,2.64,3.37,5.35,6.69,7.89,10.13,7.06,9.58,15.58,18.15,20.24,29.38-4.28-1.55-6.96-5.12-9.79-8.27-40.36-44.93-91.46-63.02-150.82-60.51-17.42.74-33.07,6.98-47.97,15.66-4.5,2.62-8.73,6.14-14.23,6.67-.32-.92-.76-1.61-.6-1.81,7.87-9.63,2.86-16.41-3.99-24.18-31.95-36.25-68.32-66.7-112.07-87.77-8.69-4.19-17.72-7.67-27.02-11.66,5.25-2.65,8.84-1.74,29.15,4.93,9.69,3.18,18.45,8.51,29.6,12.61-3.9-9.6-7.34-17.62-10.43-25.77-5.65-14.89-11.06-29.86-16.62-44.78-3.5-9.38-7.28-18.61-14.51-25.94-1.24-1.26-3.2-2.74-2.02-4.82,1.13-2,3.51-1.61,5.11-.87,4.62,2.14,6.82-.77,9.43-3.69,8.72-9.72,14.57-21.24,20.7-32.58,4.58,2.78,1.73,6.29.53,9.18-3.85,9.32-9.47,17.7-16.29,25.01-5.31,5.7-6.04,10.59-2.74,17.92,12.62,28.08,24.48,56.5,36.54,84.82,1.93,4.53,4.04,8.85,8.16,11.81,17.73,12.74,35.81,25.07,50.56,41.45,10.07,10.51,20.16,21.01,30.21,31.54,2.55,2.68,4.95,4.29,9.17,2.95,35.22-11.21,70.8-8.32,106.33-1.9,25.5,4.61,51.02,3.69,76.5.83,22.73-2.55,45.35-6.09,67.29-12.94,18.09-3.56,34.39-12.16,51.61-18.14,22.32-7.76,35.44-23.31,43.03-44.69,4.88-13.74,12.61-25.52,23.88-34.85,2.59-2.14,4.18-4.85,5.23-7.96Z"/>
      <path class="cls-10" d="M812.71,386.87c13.98,13.3,28.02,26.53,37.59,43.64.76,1.36,1.87,2.7,3.85,2.24-9.07,14.08-20.37,26.46-30.47,39.75-7.02,9.23-14.33,18.24-21.42,27.42-2.44,3.16-4.89,5.62-9.43,4.47-21.93-5.54-43.88-10.96-65.88-16.44-.16-4.12,3.22-5.01,5.3-6.7,19.22-15.67,38.96-30.66,53.87-51.02,8.16-11.14,13.45-23.33,17.05-36.37,1.47-5.3,3.83-8.1,9.55-6.98Z"/>
      <path class="cls-7" d="M636.49,540.18c-18.83-.35-37.14-3.02-54.07-11.98-8.35-4.42-14.95-10.69-19.13-19.19-1.52-3.08-3.15-7.08.26-9.7,3.54-2.73,5.85,1,8.13,3.06,32.59,29.43,81.4,33.48,118.25,9.71,5.9-3.81,11.59-7.95,17.46-11.8,2.51-1.65,5.4-3.18,8.14-.59,2.59,2.45.68,4.98-.47,7.38-6.63,13.82-17.97,21.93-32.26,26.35-15.08,4.66-30.51,6.97-46.32,6.75Z"/>
      <path class="cls-12" d="M762.46,225.13c27.04,10.02,42.81,45.26,33.48,74.82-10.95,34.7-46.67,53.32-79.52,41.46-33.43-12.07-50.34-50.2-36.93-83.56,1.49-3.7,4.05-6.97,5.67-10.63.78-1.76,3.88-3.72.55-6,0,0,.18-.18.17-.18,4.83,2.27,5.9-2.58,8.08-4.64,9.29-8.77,19.76-14.88,32.7-16.1,0,1.16.01,2.31.02,3.47-1.22,1.82-3.33,1.55-5.07,2.13-24,8.07-38.36,24.3-41.71,49.63-3.23,24.42,9.87,48.59,31.98,59.48,21.58,10.63,48.38,6.27,65.29-10.6,17.13-17.1,21.77-45.98,11.56-67.61-6.19-13.1-16.55-21.65-28.33-29.05.69-.87,1.38-1.74,2.07-2.61Z"/>
      <path class="cls-9" d="M790.89,59.66c-6.19.3-10.74-3.46-15.02-6.91-12.33-9.94-25.77-17.28-41.12-21.63-10.53-2.98-20.02-9.08-31.26-10.32-26.37-2.9-52.59-2.79-78.72,2.36-12.65,2.49-25.25,5.09-37.55,9.02-.01-1.1-.03-2.19-.04-3.29,30.35-15.58,62.47-20.02,96.27-16.76,25.47,2.46,50.06,7.41,72.43,20.14,12.93,7.36,26.06,14.81,35.02,27.38Z"/>
      <path class="cls-4" d="M480.33,231.6c-3.79,14.87,6.67,27.97,4.84,43.01-1.78,14.64-.51,29.65-.67,44.49-.03,2.92.65,5.94-.75,8.76-.84-4.07-3.5-7.2-5.4-10.74-12.27-22.89-17.87-46.64-11.15-72.69,2.02-7.84,2.81-14.53,13.12-12.83Z"/>
      <path class="cls-12" d="M624.8,226.81c15.4,19.54,15.31,40.87,5.91,62.45-11.45,26.29-43.38,43.88-72.22,34.42-47.87-15.7-58.34-69.1-30.27-102.01,3.77-4.42,7.39-9.37,13.46-11.16.68.77,1.37,1.54,2.05,2.32-2.16,2.01-4.22,4.14-6.5,6.02-18.67,15.38-25.35,40.66-16.97,64.51,7.51,21.37,31.27,39.44,53.65,38.52,17.46-.72,33.62-7.18,45-21.25,14.96-18.5,20.33-45.14,2.3-73.1,1.19-.24,2.38-.47,3.58-.71Z"/>
      <path class="cls-7" d="M480.33,231.6c-10.31-1.7-11.1,4.99-13.12,12.83-6.72,26.04-1.12,49.8,11.15,72.69,1.9,3.54,4.56,6.67,5.4,10.74-.17,2.18,1.63,5.1-1.77,6.13-3.16.95-4.03-1.98-5.34-3.88-18.59-27.05-25.19-56.69-18.96-89.02,1.18-6.12,2.81-12.23,8.27-16.12,3.31-2.36,7.23-4.51,11.26-2.67,3.75,1.71,3.19,5.79,3.11,9.29Z"/>
      <path class="cls-4" d="M812.76,359.84c4.23-20.81,8.47-41.61,12.7-62.41,7.37,4.72,7.52,11.64,5.84,19.12-.93,4.13-3.05,8.04-2.35,12.48,0,0-.5.37-.5.37l.42-.46c5.21-4.5,7.44-10.26,7.68-17.08.21-6.24-.15-12.38-1.35-18.5-.9-4.58-.06-8.14,5.56-8.52,5.3,3.75,5.4,9.33,5.14,14.97-.66,14.32-6.02,27.18-13.27,39.18-5.01,8.29-8.71,18.24-19.86,20.85Z"/>
      <path class="cls-7" d="M812.76,359.84c11.14-2.62,14.84-12.56,19.86-20.85,7.26-12,12.61-24.86,13.27-39.18.26-5.64.16-11.21-5.14-14.96,2.17-3.05,6.66-4.43,7.01-8.89-3.48-1.91-7.55,1.15-10.27-2.28,1.34-3.03,1.35-8.25,5.77-7.43,4.5.83,9.24,3.23,10.57,8.76,2.56,10.7,1.65,21.35-.32,32.01-5.09,27.47-19.85,49.03-40.8,66.79-.72.61-1.85.75-3.31,1.31,0-5.73,1.76-10.49,3.37-15.27Z"/>
      <path class="cls-3" d="M893.48,570.02c2.05,16.45-.74,32.46-3.95,48.5-.99,4.95-.47,10.2-.64,15.32-5.37-1.1-6.84-5.19-7.97-9.87-2.46-10.16-7.05-19.34-13.65-27.48,6.71-10.83,17.04-18.08,26.21-26.47Z"/>
      <path class="cls-15" d="M867.27,596.5c6.61,8.14,11.19,17.32,13.65,27.48,1.13,4.68,2.6,8.76,7.97,9.87,8.55,17.42,14.43,35.61,15.84,55.07.25,3.4,1.35,6.88-.31,10.24-3.29-.76-3.39-3.94-4.39-6.21-7.1-16.03-13.97-32.16-17.53-49.45-2.81-13.64-9.08-25.88-15.2-38.22-1.3-2.62-4.98-5.88-.01-8.78Z"/>
      <path class="cls-3" d="M543.74,212.82c-.68-.77-1.37-1.54-2.05-2.32,27.56-18.67,64.85-11.36,83.11,16.3-1.19.24-2.38.47-3.58.71-.87-1.11-1.73-2.21-2.6-3.32-1.7-3.9-5.41-5.86-8.48-8.3-15.6-12.41-42.59-17.16-61.71-5.23-1.57.72-3.13,1.44-4.7,2.16Z"/>
      <path class="cls-2" d="M837.48,273.67c2.72,3.42,6.79.37,10.27,2.28-.34,4.46-4.83,5.83-7.01,8.89-5.62.39-6.46,3.94-5.56,8.52,1.21,6.12,1.57,12.26,1.35,18.5-.23,6.82-2.46,12.58-7.68,17.08l.09.09c-.69-4.44,1.42-8.35,2.35-12.48,1.68-7.48,1.53-14.4-5.84-19.12,4.86-7.49,10.25-14.71,12.02-23.76Z"/>
      <path class="cls-7" d="M669.18,260.37c1.19,1.05,2.91,1.97,2.36,3.86-.6,2.07-2.45,1.81-4.02,1.32-7.05-2.23-14.27-2.7-21.6-2.24-1.33.08-3.01.1-3.25-1.53-.27-1.86,1.25-2.87,2.85-3.42,3.92-1.35,7.95-1.01,12.01-.79,2.52.13,5.06,2.45,7.62.15,0,0-.06-.1-.06-.1-.28,3.34,2.35,2.4,4.09,2.77Z"/>
      <path class="cls-3" d="M726.68,223.76c0-1.16-.01-2.31-.02-3.47,12.41-1.92,24.39-.68,35.8,4.83-.69.87-1.38,1.74-2.07,2.61-10.83-4.72-22.15-5.38-33.71-3.98Z"/>
      <path class="cls-7" d="M822.45,283.73c-5.35-.53-9.87-.93-14.37-1.44-1.85-.21-4.16-.45-4.08-2.88.08-2.61,2.36-2.38,4.24-2.2,4.77.46,9.54.97,14.32,1.46,1.91.2,4.29.56,4.1,2.83-.25,3-2.96,2.31-4.2,2.22Z"/>
      <path class="cls-7" d="M505.43,246.48c-5.38-.79-10.41-1.51-15.43-2.27-1.91-.29-4.03-.7-3.55-3.26.39-2.07,2.41-1.79,3.96-1.6,5.04.62,10.08,1.3,15.1,2.07,1.83.28,4.04.67,3.55,3.26-.4,2.09-2.45,1.53-3.62,1.81Z"/>
      <path class="cls-13" d="M587.17,28.9c.01,1.1.03,2.19.04,3.29-2.31,2.64-5.38,1.46-8.19,1.64,2.19-2.5,4.84-4.25,8.14-4.93Z"/>
      <path class="cls-1" d="M669.18,260.37c-1.74-.37-4.37.57-4.09-2.77,1.57-2.51,3.19-.64,4.79-.06-.24.95-.47,1.89-.71,2.84Z"/>
      <path class="cls-13" d="M579.11,33.78c-.66,1.45-2,1.58-3.34,1.7.72-1.33,1.93-1.72,3.34-1.7Z"/>
      <path class="cls-3" d="M953.7,585.39c-15.45,7.5-25.07,20.94-34.93,34.37.75-10.01,5.92-17.82,10.68-26.14,5.81-10.13,14.34-10.82,24.05-10.12.07.63.13,1.26.2,1.89Z"/>
      <polygon class="cls-14" points="475.84 903.6 476.27 903.44 476.18 903.91 475.84 903.6"/>
      <path class="cls-3" d="M658.96,586.49c-13.02,5.45-23.92,10.28-35.05,14.54-3.84,1.47-9.14,3.46-11.9-.96-3.13-5.01-.89-10.14,3.59-15.44,2.16,10.96,8.65,9.11,15.45,6.81,8.26-2.79,16.72-4.66,27.91-4.95Z"/>
      <path class="cls-3" d="M766.07,836.42c10.96,2.95,21.5,3.11,32.04,3.65,17.71.9,34.98,4.81,52.18,9.15,11.2,2.83,19.58,8.46,24.41,19.06,2.79,6.11,8.03,10.79,9.82,17.56,1.28,4.84,1.88,9.54.07,14.23-1.97,5.11-4.68,10.98-10.04,11.8-4.67.71-5.35-6.01-7.54-9.39-15.59-23.99-37.94-39.17-63.83-49.74-10.21-4.17-20.78-7.44-31.19-11.13-2.15-.76-4.84-.79-5.93-5.18Z"/>
      <path class="cls-3" d="M733.29,895.81c-4.66-11.23-13.18-19.81-20.24-29.38-2.54-3.44-5.26-6.76-7.89-10.13,7.05-1.16,13.05,1.14,18.99,4.86,18.39,11.52,33.82,25.44,41.48,46.56,4.66,12.85,3.71,25.89,2.32,38.98-.28,2.64-.76,5.93-4.64,7.86-1.85-5.66-3.53-11.16-5.43-16.57-5.49-15.62-15.48-28.64-24.59-42.16Z"/>
      <path class="cls-16" d="M721.55,401.15c-1.35-3.65-4.63-4.55-7.96-4.06-3.17.43-6.12,2.19-9.29,2.54-26.66,3.11-53.33,2.76-79.75-2.3-18.25-3.49-36.49-7.25-52.84-16.89-3.84-2.27-7.61-.38-9.83,3.03-2.79,4.3,1.79,4.68,3.98,6.06,2.54,1.62,3.11,4.3,4.11,6.77,5.25,12.72,10.21,25.55,15.73,38.14,11.32,25.91,28.61,36.55,60.67,35.57,16.68.87,31.86-7.55,42.88-24.31,7.09-10.8,14.75-21.25,22.09-31.92,1.71-2.44,3.06-5.25,6.04-6.31,3.11-1.14,5.63-2.49,4.17-6.33ZM697.81,416.93c-5.5,13.89-13.18,26.26-24.99,35.76-6.2,7.8-15.16,10.04-24.2,10.4-18.92.73-37.49-.49-49.13-19.03-7.69-11.78-14.62-23.82-15.24-38.39-3.14-3.79-9.39-7.66-6.74-12.29,1.73-3,8.31,1,12.51,2.36,34.3,10.88,69.35,14.86,105.22,11.78,3.22-.27,8.23-2.79,9.45.7,1.46,4.25-3.55,6.52-6.88,8.72Z"/>
      <path class="cls-2" d="M677.77,348.46c4.02,6.59,4.41,11.34,1.86,16.58-2.25,4.61-5.83,6.07-10.6,5.35-5.88-.88-10.45,2.2-14.99,5.08-7.2,4.56-13.88,4.12-19.79-1.98-4.84-5.01-10.03-8.81-17.33-9.34-3.95-.29-6.34-3.08-6.49-7.1-.19-4.88-.03-9.95,3.54-13.7,1.66-1.74,2.94.14,2.8,1.99-.19,2.41-.91,4.77-1.21,7.18-.54,4.4,1.45,6.99,5.94,6.42,5.67-.71,10.08,1.49,13.89,5.17,5.74,5.54,12.32,5.21,18.74,2.32,5.12-2.31,9.89-4.14,15.46-2,3.92,1.51,5.48-.99,6.19-4.22.71-3.26,1.14-6.57,2-11.73Z"/>
      <path class="cls-4" d="M619.43,474.66c9.44,2.59,19.39,1.94,29.3,2.08,2.72.04,5.97-.06,6.16,3.55.19,3.62-3.42,2.69-5.48,3.24-11.41,3.06-22.21-1.1-33.15-3.22-2.24-.44-5.36-1.98-4.22-4.82,1.5-3.75,4.7.57,7.39-.83Z"/>
      <path class="cls-16" d="M527.76,205.25c1.69-12.43,19.31-31.14,32.08-33.67,26.23-5.2,49.62,2.76,71.44,16.62,4.76,3.02,5.82,11.6,2.5,16.06-4.1,5.51-8.56,2.31-12.87.06-12.15-6.35-23.76-13.93-37.92-15.51-16.24-1.82-30.99,1.96-44.61,10.8-3.28,2.13-6.41,4.67-10.61,5.63Z"/>
      <path class="cls-16" d="M795.47,236.66c-4.84-4.54-9.45-9.35-14.56-13.56-16.17-13.31-34.61-18.26-55.26-13.94-7.13,1.49-14.15,3.55-21.3,4.94-3.78.73-8.69,4.17-10.73-2.57-2.16-7.14.13-13.64,5.98-15.68,12.06-4.2,24.57-6.12,37.33-6.52,16.7-.52,32.38,2.34,44.84,14.54,8.97,8.78,12.43,20.21,13.69,32.78Z"/>
      <path class="cls-1" d="M788.71,256.81c-6.17-13.1-16.54-21.66-28.32-29.07-10.86-4.71-22.17-5.39-33.7-3.98-1.25,1.84-3.36,1.57-5.09,2.14-23.98,8.07-38.36,24.31-41.72,49.65-3.22,24.42,9.88,48.59,32,59.47,21.58,10.61,48.38,6.25,65.27-10.61,17.14-17.11,21.79-45.99,11.56-67.6ZM784.22,260.62c-1.71,2.6-4.17,1.16-6.55.87-23.63-3.14-47.18-6.77-71.09-7.58-4.55-.14-8.55.35-14.78,2.6,9.18-17.11,21.33-26.26,38.39-28.07,22.69-2.41,40.77,5.09,52.3,25.64,1.14,2.03,3.38,3.98,1.73,6.55Z"/>
      <path class="cls-1" d="M543.74,212.82c1.57-.72,3.13-1.44,4.7-2.16,2.93,2.73.48,3.85-1.4,5.56-4.97,4.52-9.89,9.05-13.93,14.56-3.97,5.42-3.22,7.67,3.17,10.46,10.02,4.38,20.82-1.05,31.11,4.57,6.04,3.3,13.27,5.28,19.4,9.11,1.56.97,2.83,3.08,4.88,1.94,7.37-4.13,15.33-2.14,23.02-2.34,12.48-.32,14.13-2.48,9.23-14.03-.83-1.96-2.03-3.8-3.23-5.57-2.24-3.3-3.21-6.79-2.06-10.72.87,1.11,1.73,2.21,2.6,3.32,18.04,27.95,12.66,54.6-2.3,73.1-11.38,14.08-27.55,20.53-45,21.25-22.38.93-46.15-17.14-53.65-38.52-8.38-23.85-1.7-49.13,16.97-64.51,2.27-1.87,4.34-4,6.5-6.02Z"/>
      <polygon class="cls-2" points="828.86 328.94 828.45 329.4 828.95 329.03 828.86 328.94"/>
      <path class="cls-13" d="M618.62,224.2c-1.15,3.93-.18,7.41,2.06,10.72,1.21,1.77,2.4,3.61,3.23,5.57,4.9,11.55,3.26,13.71-9.23,14.03-7.69.19-15.66-1.79-23.02,2.34-2.04,1.15-3.32-.96-4.88-1.94-6.13-3.83-13.36-5.81-19.4-9.11-10.29-5.62-21.09-.19-31.11-4.57-6.39-2.79-7.14-5.04-3.17-10.46,4.03-5.51,8.96-10.04,13.93-14.56,1.88-1.71,4.33-2.83,1.4-5.56,19.12-11.93,46.12-7.17,61.71,5.23,3.07,2.44,6.77,4.4,8.48,8.3Z"/>
      <path class="cls-2" d="M599.49,444.05c-7.67-11.77-14.63-23.82-15.24-38.39,36.85,13.8,74.76,17.01,113.55,11.26-5.48,13.91-13.19,26.26-24.97,35.77-24.9.94-49.4-1.44-73.34-8.64Z"/>
      <path class="cls-3" d="M697.8,416.92c-38.79,5.74-76.69,2.54-113.55-11.26-3.15-3.79-9.39-7.66-6.74-12.28,1.73-3.02,8.3,1,12.5,2.34,34.31,10.91,69.35,14.88,105.22,11.79,3.23-.28,8.22-2.79,9.44.7,1.48,4.26-3.54,6.51-6.88,8.71Z"/>
      <path class="cls-3" d="M599.49,444.05c23.94,7.2,48.44,9.58,73.34,8.64-6.2,7.8-15.16,10.05-24.2,10.4-18.92.73-37.5-.5-49.14-19.04Z"/>
      <path class="cls-9" d="M691.81,256.51c9.17-17.11,21.34-26.24,38.39-28.07,22.69-2.42,40.76,5.08,52.28,25.63,1.13,2.02,3.4,3.98,1.74,6.55-1.69,2.61-4.15,1.18-6.56.86-23.62-3.13-47.17-6.76-71.07-7.56-4.55-.15-8.55.35-14.78,2.59Z"/>
    </g>
  </g>
</svg>