<?xml version="1.0" ?><!DOCTYPE svg  PUBLIC '-//W3C//DTD SVG 1.1//EN'  'http://www.w3.org/Graphics/SVG/1.1/DTD/svg11.dtd'><svg enable-background="new 0 0 24 24" height="24px" id="Layer_1" version="1.1" viewBox="0 0 24 24" width="24px" xml:space="preserve" xmlns="http://www.w3.org/2000/svg" xmlns:xlink="http://www.w3.org/1999/xlink"><g><path d="M10,4v6H6l5,10v-6h5L10,4z M10,13v2.6L7.6,11H11V8l3,5H10z"/><path d="M2,17V7h7V5H1C0.4,5,0,5.4,0,6v12c0,0.6,0.4,1,1,1h8.3l-1-2H2z"/><path d="M23,7h-1V6c0-0.6-0.4-1-1-1h-9l1.2,2H20v2h2v6h-2v2h-8v2h9c0.6,0,1-0.4,1-1v-1h1c0.6,0,1-0.4,1-1V8C24,7.4,23.6,7,23,7z"/></g></svg>